<svg width="75" height="75" viewBox="0 0 75 75" fill="none" xmlns="http://www.w3.org/2000/svg">
<path d="M60.2189 16.6562C56.0626 14.7187 51.5626 13.3125 46.8751 12.5C46.7927 12.5012 46.7141 12.5349 46.6564 12.5938C46.0939 13.625 45.4376 14.9687 45.0001 16C40.0282 15.2505 34.972 15.2505 30.0001 16C29.5626 14.9375 28.9064 13.625 28.3126 12.5938C28.2814 12.5313 28.1876 12.5 28.0939 12.5C23.4064 13.3125 18.9376 14.7187 14.7501 16.6562C14.7189 16.6562 14.6876 16.6875 14.6564 16.7187C6.15637 29.4375 3.81262 41.8125 4.96887 54.0625C4.96887 54.125 5.00012 54.1875 5.06262 54.2188C10.6876 58.3438 16.0939 60.8438 21.4376 62.5C21.5314 62.5312 21.6251 62.5 21.6564 62.4375C22.9064 60.7187 24.0314 58.9062 25.0001 57C25.0626 56.875 25.0001 56.75 24.8751 56.7187C23.0939 56.0312 21.4064 55.2188 19.7501 54.2813C19.6251 54.2188 19.6251 54.0313 19.7189 53.9375C20.0626 53.6875 20.4064 53.4063 20.7501 53.1563C20.8126 53.0938 20.9064 53.0938 20.9689 53.125C31.7189 58.0313 43.3126 58.0313 53.9376 53.125C54.0001 53.0938 54.0939 53.0938 54.1564 53.1563C54.5001 53.4375 54.8439 53.6875 55.1876 53.9688C55.3126 54.0625 55.3126 54.25 55.1564 54.3125C53.5314 55.2812 51.8126 56.0625 50.0314 56.75C49.9064 56.7812 49.8751 56.9375 49.9064 57.0312C50.9064 58.9375 52.0314 60.75 53.2501 62.4687C53.3439 62.5 53.4376 62.5312 53.5314 62.5C58.9064 60.8438 64.3126 58.3438 69.9376 54.2188C70.0001 54.1875 70.0314 54.125 70.0314 54.0625C71.4064 39.9062 67.7501 27.625 60.3439 16.7187C60.3126 16.6875 60.2814 16.6562 60.2189 16.6562ZM26.6251 46.5937C23.4064 46.5937 20.7189 43.625 20.7189 39.9687C20.7189 36.3125 23.3439 33.3438 26.6251 33.3438C29.9376 33.3438 32.5626 36.3437 32.5314 39.9687C32.5314 43.625 29.9064 46.5937 26.6251 46.5937ZM48.4064 46.5937C45.1876 46.5937 42.5001 43.625 42.5001 39.9687C42.5001 36.3125 45.1251 33.3438 48.4064 33.3438C51.7189 33.3438 54.3439 36.3437 54.3126 39.9687C54.3126 43.625 51.7189 46.5937 48.4064 46.5937Z" fill="#E6EDF3"/>
</svg>
