<svg width="876" height="377" viewBox="0 0 876 377" fill="none" xmlns="http://www.w3.org/2000/svg">
<path d="M18.3333 124.624C18.3333 183.534 66.0896 231.29 125 231.29C183.91 231.29 231.667 183.534 231.667 124.624C231.667 65.7132 183.91 17.9569 125 17.9569C66.0896 17.9569 18.3333 65.7132 18.3333 124.624ZM125 124.624V144.624H375V124.624V104.624H125V124.624Z" fill="#E6EDF3"/>
<path d="M358 115L483 331.506" stroke="#E6EDF3" stroke-width="40"/>
<path d="M857.667 251.582C857.667 192.671 809.91 144.915 751 144.915C692.09 144.915 644.333 192.671 644.333 251.582C644.333 310.492 692.09 358.248 751 358.248C809.91 358.248 857.667 310.492 857.667 251.582ZM751 251.582V231.582L501 231.582V251.582V271.582L751 271.582V251.582Z" fill="#E6EDF3"/>
<path d="M518 261.506L393 45" stroke="#E6EDF3" stroke-width="40"/>
<circle cx="125" cy="125" r="122.5" stroke="#E6EDF3" stroke-width="5"/>
<circle cx="751" cy="252" r="122.5" transform="rotate(-180 751 252)" stroke="#E6EDF3" stroke-width="5"/>
</svg>
